<?xml version="1.0" encoding="UTF-8"?>
<svg id="Layer_1" xmlns="http://www.w3.org/2000/svg" version="1.1" xmlns:xlink="http://www.w3.org/1999/xlink" viewBox="0 0 48 46">
  <!-- Generator: Adobe Illustrator 29.8.1, SVG Export Plug-In . SVG Version: 2.1.1 Build 2)  -->
  <defs>
    <style>
      .st0 {
        fill: #fff;
      }

      .st1 {
        mask: url(#mask);
      }
    </style>
    <mask id="mask" x="-206.3" y="-29.2" width="116.2" height="90.7" maskUnits="userSpaceOnUse">
      <g id="a">
        <path d="M-140,44.9c-.7.8-2,.4-2-.7v-10.3c0-1.2-1-2.3-2.3-2.3,0,0,0,0,0,0h-11.4c-.9,0-1.5-1-.9-1.8l7.5-10.5c1.1-1.5,0-3.6-1.8-3.6h-13.8c-.9,0-1.5-1-.9-1.8L-155.9.5c.2-.3.6-.5.9-.5h28.9c.9,0,1.5,1,.9,1.8l-7.5,10.5c-1.1,1.5,0,3.6,1.8,3.6h11.4c.9,0,1.5,1.1.9,1.8l-21.4,27.3h0Z"/>
      </g>
    </mask>
  </defs>
  <path class="st0" d="M-139.9,44.9c-.7.8-2,.4-2-.7v-10.3c0-1.2-1-2.3-2.3-2.3,0,0,0,0,0,0h-11.4c-.9,0-1.5-1-.9-1.8l7.5-10.5c1.1-1.5,0-3.6-1.8-3.6h-13.8c-.9,0-1.5-1-.9-1.8L-155.8.5c.2-.3.6-.5.9-.5h28.9c.9,0,1.5,1,.9,1.8l-7.5,10.5c-1.1,1.5,0,3.6,1.8,3.6h11.4c.9,0,1.5,1.1.9,1.8l-21.4,27.3h0Z"/>
  <g class="st1">
    <g>
      <ellipse class="st0" cx="-155.6" cy="37" rx="14.7" ry="5.5" transform="translate(-.1 -.5) rotate(-.2)"/>
      <ellipse class="st0" cx="-175.3" cy="18.2" rx="29.9" ry="10.4" transform="translate(0 -.6) rotate(-.2)"/>
      <ellipse class="st0" cx="-175.8" cy="16.7" rx="30.5" ry="5.5" transform="translate(0 -.6) rotate(-.2)"/>
      <ellipse class="st0" cx="-171.1" cy="34.7" rx="30.6" ry="5.5" transform="translate(-.1 -.6) rotate(-.2)"/>
      <ellipse class="st0" cx="-169.6" cy="35.9" rx="30.6" ry="5.5" transform="translate(-.1 -.5) rotate(-.2)"/>
      <ellipse class="st0" cx="-112.7" cy="11.5" rx="14.1" ry="22.1" transform="translate(-117.6 -101.7) rotate(-86.7)"/>
      <ellipse class="st0" cx="-111.6" cy="15" rx="21.5" ry="3.5" transform="translate(-.3 -1.9) rotate(-1)"/>
      <ellipse class="st0" cx="-111.6" cy="15" rx="21.5" ry="3.5" transform="translate(-.3 -1.9) rotate(-1)"/>
      <ellipse class="st0" cx="-165.4" cy="9" rx="29.1" ry="4.4" transform="translate(-67.1 -124.4) rotate(-50.5)"/>
      <ellipse class="st0" cx="-118.3" cy="-6.1" rx="29.1" ry="4.4" transform="translate(-40.8 -95.7) rotate(-52.1)"/>
      <ellipse class="st0" cx="-124.4" cy="6.3" rx="9.7" ry="6" transform="translate(-53 -95.7) rotate(-52.1)"/>
      <ellipse class="st0" cx="-167.7" cy="38.3" rx="29.1" ry="4.4" transform="translate(-95 -117.6) rotate(-52.1)"/>
      <ellipse class="st0" cx="-167.7" cy="38.3" rx="29.1" ry="4.4" transform="translate(-95 -117.6) rotate(-52.1)"/>
      <ellipse class="st0" cx="-130.2" cy="29.9" rx="29.1" ry="4.4" transform="translate(-73.8 -91.2) rotate(-52.1)"/>
      <ellipse class="st0" cx="-127.4" cy="32.4" rx="15.3" ry="6" transform="translate(-74.7 -88) rotate(-52.1)"/>
    </g>
  </g>
  <path id="HUO" class="st0" d="M45.1,10v13h-10.3c-.8,0-1.4-.7-1.4-1.5v-12.6h10.6c.6,0,1.1.5,1.1,1.1h0ZM34.8,24.8c-1.8,0-3.3-1.1-3.3-3.3v-12.6h-15.1v12.6c0,2.2-1.5,3.3-3.3,3.3H2.9v11.2c0,.6.5,1.1,1.1,1.1h11.9c0-.9.7-1.8,1.6-1.8h13.1c.9,0,1.6.9,1.6,1.8h11.9c.6,0,1.1-.5,1.1-1.1v-11.2h-10.3ZM14.6,21.5v-12.6H4c-.6,0-1.1.5-1.1,1.1v13h10.3c.8,0,1.4-.7,1.4-1.5Z"/>
</svg>