<?xml version="1.0" encoding="UTF-8"?>
<svg id="Layer_1" xmlns="http://www.w3.org/2000/svg" version="1.1" viewBox="0 0 3840 2528">
  <!-- Generator: Adobe Illustrator 29.8.1, SVG Export Plug-In . SVG Version: 2.1.1 Build 2)  -->
  <defs>
    <style>
      .st0 {
        fill: #fff;
      }
    </style>
  </defs>
  <path id="HUO" class="st0" d="M3612.2,225.9v1038.1h-823.4c-62.5,0-112.8-58-112.8-121.9V135.7h847.9c48.4,0,87.7,40.6,87.7,90.3h.6ZM2788.8,1405.2c-145.1,0-263.7-86.4-263.7-263.1V135.7h-1208.3v1006.5c0,176.7-118,263.1-263.7,263.1H227.2v896.9c0,49.6,39.3,90.3,87.7,90.3h955.5c0-70.9,56.1-141.2,125.7-141.2h1047.7c69.6,0,125.7,69.6,125.7,141.2h955.5c48.4,0,87.7-40.6,87.7-90.3v-896.9h-824ZM1166,1142.1V135.7H314.9c-48.4,0-87.7,40.6-87.7,90.3v1038.1h825.9c62.5,0,112.8-58,112.8-121.9Z"/>
</svg>